<?xml version="1.0" encoding="UTF-8" standalone="no"?>
<svg xmlns:dc="http://purl.org/dc/elements/1.1/" xmlns:cc="http://creativecommons.org/ns#" xmlns:rdf="http://www.w3.org/1999/02/22-rdf-syntax-ns#" xmlns:svg="http://www.w3.org/2000/svg" xmlns="http://www.w3.org/2000/svg" xmlns:sodipodi="http://sodipodi.sourceforge.net/DTD/sodipodi-0.dtd" xmlns:inkscape="http://www.inkscape.org/namespaces/inkscape" version="1.1" id="Layer_1" x="0px" y="0px" viewBox="0 0 489.72553 163.03077" xml:space="preserve" width="522.3739" height="173.89949">
  <metadata id="metadata5902"></metadata>
  <defs id="defs5900"></defs>
  <g id="Silva" transform="translate(-8.1208209,-26.562832)">
    <path id="circle312" d="m 110.367,68.788 c 7.078,0 12.816,5.737 12.816,12.815 0,7.078 -5.738,12.816 -12.816,12.816 -7.078,0 -12.815,-5.738 -12.815,-12.816 -0.001,-7.077 5.737,-12.815 12.815,-12.815 z" style="fill:#f28a27"></path>
    <path id="path314" d="m 145.668,70.834 c 0,0 13.667,0.003 20.444,0.003 0,27.125 0,57.259 0,85.438 0,5.732 -0.75,12.138 2.889,14.108 2.249,1.222 5.987,1.046 8.667,0.778 0,5.702 0,11.405 0,17.108 -5.388,1.521 -12.027,1.461 -17,0.223 -4.911,-1.223 -8.845,-3.84 -11.333,-7.555 -2.625,-3.92 -3.666,-8.969 -3.666,-15.223 10e-4,-31.031 -0.001,-94.88 -0.001,-94.88 z"></path>
    <path id="path316" d="m 78.785,128.055 c -6.442,0 -12.888,0 -19.333,0 -0.229,-3.863 -1.854,-7.018 -4.667,-9 -3.519,-2.479 -8.57,-3.136 -13.442,-2.775 -4.683,0.345 -8.821,2.658 -10.556,5.775 -1.072,1.932 -1.607,5.428 -0.444,7.778 2.115,4.271 7.678,4.867 13.333,5.555 3.906,0.474 7.829,1.018 11.332,1.556 7.824,1.201 13.465,3.17 18.333,7.444 4.637,4.072 7.475,10.474 7.221,18.556 -0.242,7.736 -3.69,13.74 -7.999,17.664 -4.336,3.948 -11.05,6.883 -17.666,8.11 -7.905,1.47 -16.377,1.007 -23.109,-0.776 -9.771,-2.592 -17.409,-8.719 -21.332,-17.332 -1.338,-2.938 -2.401,-6.082 -2.332,-10.444 6.332,0 12.665,0 18.998,0 0.844,10.271 7.965,14.058 19.89,13.557 5.917,-0.25 11.745,-2.256 13.775,-6.223 1.229,-2.4 1.121,-6.543 -0.11,-8.777 -2.139,-3.883 -5.996,-4.451 -11.443,-5.109 -2.769,-0.338 -5.657,-0.715 -8.111,-1 -5.26,-0.611 -10.777,-1.23 -15.333,-3 -4.739,-1.842 -7.755,-4.178 -10.555,-7.777 -2.591,-3.331 -4.747,-7.839 -4.776,-13.555 -0.054,-9.705 4.4,-15.825 9.888,-20.109 4.284,-3.346 9.532,-5.565 15.776,-6.666 2.074,-0.365 4.586,-0.659 7.111,-0.778 5.325,-0.252 9.979,0.604 13.999,1.778 8.222,2.402 14.045,6.736 17.999,13.441 1.911,3.24 3.583,7.132 3.553,12.107 z"></path>
    <path id="path318" d="m 352.547,171.496 c 0,5 0,10 0,14.998 -3.995,1.979 -9.521,2.971 -14.443,1.778 -5.372,-1.301 -9.162,-5.22 -10,-11.11 -0.757,0.653 -1.356,1.936 -2.109,2.776 -6.406,7.181 -18.944,11.754 -32.441,8.666 -11.287,-2.58 -19.716,-9.851 -21.443,-21.664 -1.059,-7.244 0.696,-13.041 3.443,-17.444 4.15,-6.647 11.107,-10.752 20,-12.33 3.077,-0.547 6.3,-0.735 9.774,-1 6.601,-0.504 13.465,-0.902 19.999,-1.446 0.207,-7.327 0.049,-13.231 -4.333,-16.219 -3.435,-2.346 -9.059,-2.69 -13.775,-2.001 -6.777,0.991 -11.136,4.688 -11.665,11.776 -6.557,0 -13.11,0 -19.666,0 1.58,-18.383 13.92,-26.557 32.998,-27.441 17.945,-0.835 30.12,5.618 34.44,18.887 2.089,6.405 1.891,16.479 1.891,24.666 0,6.315 0,13.011 0,19.888 0,2.396 -0.074,4.67 0.668,5.89 1.033,1.705 3.696,2.002 6.662,1.33 z m -44.776,-20.22 c -2.784,0.194 -5.338,0.275 -7.666,1 -2.287,0.711 -3.995,1.752 -5.554,3.11 -1.595,1.976 -2.94,3.922 -2.891,7.332 0.096,6.52 5.549,10.395 11.999,10.444 14.142,0.106 22.902,-8.177 21.664,-23.222 -5.657,0.261 -11.736,0.927 -17.552,1.336 z"></path>
    <path id="path320" d="m 204,104.835 c 0,0 14.099,39.599 21.108,59.439 6.837,-19.681 13.311,-39.725 20.11,-59.439 6.962,0 13.924,0 20.886,0 -10.09,28.312 -20.364,56.443 -30.552,84.661 -7.186,0 -14.369,0 -21.554,0 C 203.481,161.459 182.55,104.83 182.55,104.83 Z"></path>
    <rect id="rect322" x="99.896004" y="104.798" width="20.775999" height="84.586998"></rect>
  </g>
  <g id="Trees" transform="translate(-4.0019801,-13.662385)">
    <path id="path262" d="m 418.166,111.171 c -0.725,5.037 -1.836,17.939 -1.836,17.939 l -0.979,37.6 v 3.889 c -0.616,6.127 -9.267,6.459 -10.266,0.217 v -3.46 c 0,0 1.594,-47.662 2.063,-51.857 0.332,-2.971 1.337,-5.783 0,-7.559 -14.025,3.898 -30.548,10.687 -30.548,10.687 -0.426,1.066 -4.189,7.055 -5.214,7.139 -0.841,0.072 -1.464,-0.524 -1.512,-1.188 -0.078,-1.064 2.998,-3.739 3.457,-5.402 -0.706,-0.695 -7.42,0.736 -9.51,1.3 -1.198,0.323 -4.241,1.858 -3.997,-0.648 0.159,-1.604 3.88,-2.059 5.292,-2.269 2.335,-0.347 4.412,-0.752 6.377,-1.19 -0.677,-1.234 -2.608,-0.981 -2.81,-2.483 -0.446,-3.308 4.166,-1.227 5.916,1.289 3.857,-0.668 22.94,-7.252 31.571,-10.687 -0.159,-1.705 0.571,-2.525 0.541,-4.105 -12.927,-5.869 -27.311,-10.286 -41.378,-15.018 -3.256,1.782 -6.722,3.25 -10.481,4.752 -1.099,0.442 -2.348,1.412 -3.673,0.865 -1.467,-1.818 1.635,-2.511 2.918,-3.023 1.43,-0.571 8.723,-3.539 10.047,-5.187 -1.034,-1.947 -4.674,-5.734 -5.078,-6.05 -0.946,-1.462 -2.795,-2.027 -2.919,-4.321 1,-1.456 2.535,0.82 3.242,1.62 2.165,2.439 4.941,5.098 6.482,7.564 14.543,4.545 28.796,9.379 42.242,15.016 2.129,-0.324 2.092,-7.415 2.161,-7.779 0,0 0.181,-7.275 0,-9.508 -3.307,-1.57 -19.518,-11.855 -20.457,-11.999 -1.408,1.115 -5.207,2.87 -7.2,3.896 -0.726,0.375 -1.59,1.198 -2.378,1.189 -0.803,-0.012 -1.666,-0.802 -1.619,-1.728 0.068,-1.399 2.502,-2.284 3.673,-2.811 1.647,-0.742 3.002,-1.286 4.105,-2.269 -2.525,-2.098 -5.103,-4.142 -8.319,-5.942 -0.932,-0.522 -2.432,-1.107 -2.594,-2.052 -0.135,-0.807 0.473,-1.988 1.294,-2.159 1.302,-0.271 2.26,0.718 3.243,1.294 2.849,1.674 8.671,5.893 8.671,5.893 -0.066,-0.437 -0.589,-4.072 -1.003,-5.567 -0.387,-1.398 -1.737,-4.901 0.647,-4.537 1.076,0.163 1.251,2.378 1.605,3.651 0.563,2.009 1.984,7.417 2.07,8.663 4.479,1.969 7.741,5.154 12.425,6.917 0.179,-0.333 0.684,-4.415 -0.973,-8.104 -0.592,-1.129 -2.156,-2.299 -2.159,-3.347 0,-0.726 0.643,-1.256 1.188,-1.298 1.313,-0.102 2.586,2.131 3.32,3.272 1.926,2.929 1.214,9.543 1.214,9.543 -0.554,1.526 2.151,2.538 4.109,3.393 0.485,-1.312 1.064,-4.393 1.167,-5.121 0.307,-1.472 0.119,-3.993 0.119,-3.993 -0.208,-3.938 -0.498,-7.351 -0.855,-11.523 -0.27,-3.219 -0.654,-6.381 -1.332,-9.019 -0.312,-1.217 -0.989,-2.51 -1.477,-3.729 -1.472,-3.7 -2.065,-8.411 -3.565,-11.991 -0.391,-0.15 -0.782,-0.3 -1.078,-0.542 -2.688,1.111 -5.478,1.967 -8.751,2.918 -0.74,0.215 -2.385,0.931 -3.133,0.538 -0.294,-0.152 -0.803,-1.088 -0.433,-1.837 0.343,-0.691 2.021,-0.86 2.809,-1.077 3.016,-0.844 6.062,-1.992 8.535,-2.811 -0.029,-0.534 0.02,-0.989 0.11,-1.405 0.45,-0.923 -4.737,-4.939 -4.755,-6.048 0,-0.666 0.36,-1.242 1.08,-1.298 1.203,-0.077 4.625,5.251 5.832,5.296 0.497,0.045 1.195,-0.107 1.515,0.107 1.789,-2.233 2.432,-5.473 3.996,-8.319 0.327,-0.589 1.121,-2.044 2.379,-1.619 1.628,0.547 -0.093,2.699 -0.538,3.564 -0.536,1.049 -0.807,1.935 -1.19,2.917 -1.006,2.576 -1.73,3.953 -2.81,5.509 l -0.096,2.275 c -0.408,1.716 3.032,12.468 4.96,15.227 1.947,-1.979 2.905,-6.035 4.753,-8.858 0.382,-0.586 2.624,-3.458 3.241,-1.403 0.293,0.975 -1.291,2.395 -1.621,2.916 -1.833,2.91 -2.748,6.835 -4.766,9.337 1.136,6.999 1.333,14.917 2.713,22.209 1.239,-0.356 8.124,-17.904 11.452,-25.064 -0.544,-0.599 -0.194,-1.62 -0.324,-2.593 -1.205,-2.521 -1.455,-7.443 -1.946,-10.048 -0.271,-1.437 -0.879,-3.062 0.755,-3.242 3.452,-0.378 1.514,9.816 3.458,11.454 0.69,-0.854 1.049,-2.167 1.515,-3.459 0.881,-2.445 1.582,-4.602 2.483,-7.455 0.44,-1.396 1.02,-4.772 3.023,-3.024 -0.612,3.594 -2.212,7.392 -3.459,11.02 -0.463,1.35 -1.853,3.617 -0.538,4.43 4.098,-0.932 6.67,-3.616 10.48,-5.188 0.755,-0.311 3.389,-1.408 3.673,0 0.268,1.324 -2.27,1.738 -3.243,2.162 -3.709,1.619 -6.517,4.199 -10.803,5.076 -0.55,0.851 -1.011,1.801 -2.381,1.838 -3.753,8.27 -7.294,16.759 -10.803,25.281 2.434,-0.546 4.195,-2.518 6.053,-4.215 0.848,-0.773 1.749,-1.728 2.698,-2.483 0.834,-0.661 1.972,-2.014 3.349,-1.189 0.418,0.897 -1.582,2.001 -2.16,2.593 -0.555,0.471 -5.859,5.575 -9.398,7.348 -0.45,0.953 -0.967,1.844 -1.944,2.269 -0.299,2.043 -0.576,4.102 -1.19,5.833 -0.25,1.873 -0.036,4.214 -0.108,6.266 v 2.811 0.646 c -0.248,0.257 -0.037,0.969 -0.11,1.405 0.185,3.186 -0.95,6.158 -0.755,8.642 1.342,-0.225 2.706,-0.93 4.106,-1.514 1.994,-0.83 4.036,-1.554 5.512,-2.808 0.133,0.031 0.948,-6.956 2.112,-10.511 0.261,-1.074 0.491,-2.586 1.56,-2.349 1.254,0.279 0.319,2.622 0.081,3.441 -1.016,2.595 -1.042,5.672 -1.578,8.72 4.369,-0.247 16.859,-5.781 22.563,-9.188 0.131,-2.617 0.821,-5.279 1.728,-7.511 0.46,-1.122 0.826,-2.804 1.729,-2.918 2.531,-0.31 0.369,3.349 -0.107,4.537 -0.576,1.451 -0.932,3.348 -0.975,4.829 2.384,-0.281 3.832,-2.19 5,-3.688 0.657,-0.567 3.937,-4.187 4.618,-6.112 -0.005,-1.691 0.351,-2.843 1.08,-4.538 0.474,-1.092 0.995,-2.662 1.513,-2.916 0.72,-0.346 1.71,0.172 1.838,0.65 0.223,0.831 -0.65,2.29 -0.976,3.022 -0.438,1.014 -0.999,1.675 -0.972,2.917 5.879,-2.772 11.315,-8.136 17.287,-11.884 1.089,-0.684 3.772,-2.317 3.888,-0.108 0.071,1.352 -3.935,3.251 -4.861,3.889 -5.152,3.569 -9.887,7.788 -15.559,10.697 -0.574,1.541 -6.158,7.419 -6.698,8.103 7.717,1.655 15.451,1.08 15.451,1.08 2.177,0.25 6.025,-0.199 5.725,1.944 -0.147,1.381 -4.334,0.318 -6.593,0.537 -7.991,-0.031 -14.11,-1.389 -16.088,-1.194 -1.603,0.158 -24.748,10.469 -26.468,11.994 0.971,1.053 2.44,1.513 4.105,2.161 1.194,0.462 3.9,1.044 3.89,2.483 -0.015,2.047 -2.414,0.674 -3.337,0.274 -2.608,-0.972 -6.312,-3.252 -7.594,-3.687 0,0 -7.097,2.886 -10.032,4.061 -0.203,1.432 0.441,2.012 0.433,3.24 4.443,1.752 8.861,4.015 13.241,5.469 0,0 9.083,3.524 11.304,5.142 0.536,0.39 1.919,1.733 3.664,2.376 5.488,2.021 15.266,3.149 14.129,6.667 -0.643,1.989 -15.119,-4.635 -16.147,-3.764 0,0 5.491,9.041 2.919,9.737 -2.572,0.696 -3.68,-8.219 -6.059,-9.89 -4.948,-3.474 -24.988,-10.765 -24.988,-10.765 z"></path>
    <path id="path262_2_" d="m 454.52,140.173 c -0.409,2.84 -1.035,10.111 -1.035,10.111 l -0.552,21.193 v 2.192 c -0.348,3.454 -5.224,3.641 -5.787,0.122 v -1.95 c 0,0 0.899,-26.865 1.163,-29.232 0.188,-1.674 0.754,-3.259 0,-4.26 -7.905,2.197 -17.219,6.023 -17.219,6.023 -0.239,0.602 -2.361,3.977 -2.938,4.024 -0.474,0.04 -0.825,-0.296 -0.853,-0.67 -0.044,-0.6 1.689,-2.107 1.949,-3.045 -0.399,-0.392 -4.183,0.415 -5.361,0.732 -0.675,0.183 -2.39,1.048 -2.252,-0.365 0.089,-0.903 2.186,-1.16 2.982,-1.278 1.316,-0.195 2.486,-0.424 3.595,-0.672 -0.382,-0.695 -1.471,-0.553 -1.584,-1.399 -0.251,-1.864 2.349,-0.691 3.335,0.727 2.174,-0.376 12.93,-4.088 17.796,-6.024 -0.09,-0.961 0.322,-1.423 0.305,-2.313 -7.286,-3.308 -15.395,-5.798 -23.323,-8.465 -1.836,1.004 -3.789,1.832 -5.908,2.679 -0.619,0.25 -1.323,0.796 -2.07,0.487 -0.827,-1.025 0.922,-1.415 1.645,-1.704 0.807,-0.322 4.917,-1.995 5.663,-2.924 -0.583,-1.098 -2.635,-3.232 -2.862,-3.41 -0.533,-0.823 -1.575,-1.143 -1.645,-2.435 0.563,-0.82 1.429,0.463 1.827,0.914 1.22,1.374 2.785,2.873 3.654,4.263 8.197,2.563 16.231,5.287 23.81,8.465 1.2,-0.183 1.18,-4.18 1.219,-4.385 0,0 0.102,-4.102 0,-5.36 -1.864,-0.884 -11.001,-6.682 -11.531,-6.764 -0.794,0.629 -2.935,1.618 -4.059,2.197 -0.409,0.211 -0.896,0.675 -1.34,0.67 -0.453,-0.006 -0.939,-0.452 -0.913,-0.973 0.038,-0.789 1.41,-1.289 2.07,-1.585 0.929,-0.419 1.692,-0.725 2.314,-1.279 -1.423,-1.182 -2.876,-2.334 -4.689,-3.349 -0.525,-0.294 -1.371,-0.624 -1.462,-1.156 -0.075,-0.455 0.267,-1.121 0.729,-1.218 0.733,-0.153 1.273,0.405 1.828,0.729 1.605,0.943 4.888,3.321 4.888,3.321 -0.037,-0.246 -0.332,-2.295 -0.565,-3.138 -0.218,-0.788 -0.979,-2.764 0.364,-2.558 0.606,0.092 0.706,1.34 0.905,2.058 0.317,1.133 1.118,4.182 1.167,4.884 2.525,1.109 4.363,2.905 7.004,3.898 0.101,-0.188 0.385,-2.488 -0.548,-4.568 -0.335,-0.636 -1.216,-1.296 -1.217,-1.887 0,-0.408 0.362,-0.707 0.668,-0.73 0.74,-0.059 1.458,1.201 1.872,1.844 1.085,1.65 0.684,5.379 0.684,5.379 -0.311,0.86 1.213,1.431 2.316,1.913 0.275,-0.739 0.601,-2.477 0.658,-2.887 0.174,-0.83 0.067,-2.251 0.067,-2.251 -0.117,-2.219 -0.28,-4.144 -0.482,-6.495 -0.151,-1.813 -0.368,-3.597 -0.751,-5.083 -0.176,-0.687 -0.558,-1.415 -0.832,-2.102 -0.83,-2.085 -1.164,-4.741 -2.01,-6.759 -0.22,-0.085 -0.44,-0.169 -0.607,-0.305 -1.514,0.626 -3.088,1.108 -4.932,1.645 -0.418,0.121 -1.345,0.525 -1.767,0.303 -0.166,-0.085 -0.453,-0.613 -0.244,-1.035 0.193,-0.389 1.139,-0.485 1.584,-0.607 1.699,-0.476 3.417,-1.123 4.811,-1.585 -0.017,-0.301 0.011,-0.558 0.061,-0.792 0.255,-0.521 -2.67,-2.784 -2.68,-3.409 0,-0.376 0.203,-0.7 0.608,-0.731 0.679,-0.044 2.607,2.959 3.288,2.985 0.279,0.025 0.673,-0.061 0.853,0.06 1.009,-1.259 1.371,-3.084 2.253,-4.689 0.184,-0.332 0.632,-1.152 1.34,-0.913 0.918,0.309 -0.052,1.522 -0.303,2.009 -0.303,0.592 -0.455,1.091 -0.671,1.645 -0.566,1.452 -0.975,2.228 -1.583,3.105 l -0.055,1.283 c -0.229,0.967 1.71,7.028 2.797,8.583 1.098,-1.115 1.638,-3.402 2.679,-4.993 0.215,-0.33 1.479,-1.949 1.826,-0.791 0.166,0.549 -0.727,1.35 -0.913,1.644 -1.033,1.64 -1.549,3.853 -2.686,5.263 0.641,3.946 0.751,8.408 1.529,12.519 0.699,-0.2 4.58,-10.092 6.455,-14.128 -0.306,-0.337 -0.109,-0.913 -0.183,-1.461 -0.68,-1.421 -0.82,-4.196 -1.098,-5.664 -0.152,-0.81 -0.494,-1.726 0.426,-1.828 1.946,-0.213 0.853,5.533 1.949,6.457 0.39,-0.481 0.592,-1.222 0.854,-1.95 0.496,-1.378 0.892,-2.593 1.399,-4.202 0.248,-0.787 0.576,-2.689 1.704,-1.705 -0.345,2.026 -1.247,4.166 -1.949,6.211 -0.262,0.761 -1.045,2.039 -0.304,2.498 2.31,-0.525 3.76,-2.039 5.907,-2.924 0.426,-0.175 1.911,-0.794 2.07,0 0.15,0.746 -1.279,0.979 -1.827,1.219 -2.091,0.913 -3.673,2.367 -6.09,2.861 -0.31,0.479 -0.569,1.015 -1.342,1.036 -2.115,4.661 -4.111,9.446 -6.089,14.25 1.372,-0.308 2.364,-1.419 3.411,-2.376 0.478,-0.436 0.986,-0.974 1.521,-1.399 0.47,-0.372 1.111,-1.136 1.888,-0.671 0.235,0.505 -0.892,1.128 -1.219,1.461 -0.311,0.267 -3.302,3.144 -5.297,4.143 -0.253,0.537 -0.545,1.039 -1.096,1.279 -0.169,1.151 -0.325,2.312 -0.671,3.287 -0.141,1.057 -0.021,2.376 -0.061,3.531 v 1.585 0.364 c -0.14,0.145 -0.021,0.546 -0.061,0.792 0.103,1.797 -0.535,3.472 -0.426,4.872 0.757,-0.127 1.525,-0.524 2.315,-0.854 1.124,-0.468 2.274,-0.876 3.106,-1.582 0.075,0.017 0.535,-3.922 1.19,-5.926 0.147,-0.605 0.277,-1.457 0.88,-1.323 0.706,0.157 0.18,1.478 0.045,1.939 -0.572,1.462 -0.587,3.197 -0.89,4.915 2.463,-0.139 9.503,-3.259 12.719,-5.179 0.073,-1.475 0.463,-2.976 0.974,-4.233 0.259,-0.633 0.466,-1.58 0.975,-1.645 1.427,-0.175 0.208,1.888 -0.061,2.558 -0.324,0.818 -0.525,1.887 -0.549,2.722 1.344,-0.158 2.16,-1.233 2.818,-2.078 0.371,-0.32 2.22,-2.36 2.602,-3.445 -0.002,-0.954 0.198,-1.603 0.61,-2.559 0.267,-0.615 0.56,-1.5 0.852,-1.644 0.406,-0.194 0.965,0.098 1.037,0.366 0.125,0.469 -0.367,1.292 -0.551,1.704 -0.247,0.571 -0.564,0.944 -0.547,1.644 3.314,-1.563 6.378,-4.585 9.743,-6.698 0.614,-0.386 2.126,-1.306 2.191,-0.062 0.04,0.763 -2.217,1.833 -2.74,2.192 -2.904,2.013 -5.573,4.39 -8.77,6.029 -0.323,0.869 -3.472,4.183 -3.775,4.568 4.35,0.933 8.709,0.608 8.709,0.608 1.228,0.142 3.397,-0.112 3.228,1.097 -0.083,0.777 -2.443,0.179 -3.717,0.302 -4.504,-0.017 -7.953,-0.782 -9.068,-0.673 -0.903,0.09 -13.949,5.901 -14.919,6.761 0.547,0.594 1.375,0.852 2.315,1.218 0.673,0.261 2.198,0.589 2.192,1.4 -0.009,1.153 -1.361,0.379 -1.882,0.154 -1.47,-0.547 -3.558,-1.833 -4.28,-2.078 0,0 -3.999,1.626 -5.654,2.289 -0.114,0.808 0.248,1.134 0.243,1.826 2.506,0.988 4.996,2.264 7.465,3.083 0,0 5.12,1.987 6.371,2.897 0.302,0.22 1.081,0.978 2.065,1.34 3.094,1.139 8.605,1.775 7.965,3.758 -0.363,1.122 -8.523,-2.612 -9.103,-2.121 0,0 3.096,5.096 1.646,5.488 -1.45,0.393 -2.074,-4.633 -3.416,-5.575 -2.786,-1.958 -14.082,-6.067 -14.082,-6.067 z"></path>
  </g>
  <g id="Shapes" transform="translate(-4.0019801,-13.662385)">
    <rect x="362.94501" y="116.38" width="3.822" height="4.1409998" id="rect5872" style="clip-rule:evenodd;fill:#e67d20;fill-rule:evenodd"></rect>
    <rect x="377.68799" y="56.050999" width="4.1409998" height="4.46" id="rect5874" style="clip-rule:evenodd;fill:#d93f1c;fill-rule:evenodd"></rect>
    <rect x="435.116" y="87.834999" width="8.283" height="8.7580004" id="rect5876" style="clip-rule:evenodd;fill:#da5016;fill-rule:evenodd"></rect>
    <rect x="381.716" y="87.927002" width="8.2810001" height="8.9180002" id="rect5878" style="clip-rule:evenodd;fill:#e06b1e;fill-rule:evenodd"></rect>
    <rect x="406.62299" y="113.452" width="11.469" height="12.741" id="rect5880" style="clip-rule:evenodd;fill:#e67c1e;fill-rule:evenodd"></rect>
    <path d="m 445.225,116.964 c -2.812,0 -5.095,2.281 -5.095,5.095 0,2.814 2.282,5.095 5.095,5.095 2.814,0 5.094,-2.28 5.094,-5.095 0,-2.814 -2.28,-5.095 -5.094,-5.095 z" id="path5882" style="clip-rule:evenodd;fill:#d83c18;fill-rule:evenodd"></path>
    <path d="m 361.052,75.728 c -1.144,0 -2.071,0.927 -2.071,2.071 0,1.144 0.928,2.07 2.071,2.07 1.143,0 2.068,-0.926 2.068,-2.07 10e-4,-1.143 -0.925,-2.071 -2.068,-2.071 z" id="path5884" style="clip-rule:evenodd;fill:#d83c18;fill-rule:evenodd"></path>
    <path d="m 462.99,75.056 c -1.627,0 -2.946,1.319 -2.946,2.945 0,1.627 1.319,2.948 2.946,2.948 1.626,0 2.945,-1.32 2.945,-2.948 0,-1.626 -1.319,-2.945 -2.945,-2.945 z" id="path5886" style="clip-rule:evenodd;fill:#e1421e;fill-rule:evenodd"></path>
    <rect x="430.32001" y="58.255001" width="4.1420002" height="4.1409998" id="rect5888" style="clip-rule:evenodd;fill:#cc200a;fill-rule:evenodd"></rect>
    <rect x="410.07501" y="77.207001" width="9.875" height="10.83" id="rect5890" style="clip-rule:evenodd;fill:#db571f;fill-rule:evenodd"></rect>
    <polygon points="409.313,32.139 404.487,40.477 414.12,40.487 " id="polygon5892" style="clip-rule:evenodd;fill:#d02e1a;fill-rule:evenodd"></polygon>
    <polygon points="479.964,118.3 476.929,123.818 483.225,123.688 " id="polygon5894" style="clip-rule:evenodd;fill:#e06a1c;fill-rule:evenodd"></polygon>
  </g>
</svg>
