<svg width="353" height="50" viewBox="0 0 353 50" fill="none" xmlns="http://www.w3.org/2000/svg">
<g clip-path="url(#clip0_47_326)">
<path d="M85.6467 7.4015C85.6467 7.4015 78.8245 5.61741 76.2011 5.38635C76.2011 5.38635 65.8206 10.9356 62.9124 12.803C60.0041 14.6648 59.4458 17.4697 59.3177 18.5132L74.1342 7.69317H85.7461C86.0406 7.69317 85.6467 7.4015 85.6467 7.4015Z" fill="#2E261F"/>
<path d="M65.9984 0.284058C60.9143 0.284058 57.4076 2.33141 57.4076 2.33141H0C0 3.85603 2.32315 5.02459 5.03827 5.02459H45.6618C45.6618 5.02459 35.9505 5.02459 35.9505 14.981V29.8825C35.9505 36.3447 39.3788 41.9848 44.9907 45.2367C50.5968 48.4848 53.4114 48.2386 57.5414 48.2386V19.8125C57.5414 17.3087 58.3005 13.9962 61.6542 11.7746C64.6925 9.76512 75.1916 4.07383 75.1916 4.07383L75.2088 4.09088C73.4076 2.17989 70.1361 0.284058 65.9984 0.284058ZM57.5816 10.964V9.15148L64.0883 5.5833L66.9487 5.81436L57.5758 10.9659H57.5816V10.964ZM69.6715 5.87497C69.0998 5.87497 68.6294 5.41095 68.6294 4.83898C68.6294 4.26701 69.0979 3.80678 69.6715 3.80678C70.2451 3.80678 70.7174 4.2708 70.7174 4.83898C70.7174 5.40716 70.2489 5.87497 69.6715 5.87497Z" fill="#2E261F"/>
<path d="M73.8837 4.7898C71.9908 3.1951 69.0156 1.73487 65.4802 1.73487V0.293586L65.9984 0.286011C70.1284 0.286011 73.3866 2.16859 75.1877 4.07578L73.8856 4.7879V4.79169L73.8837 4.7898Z" fill="#DF1E12"/>
<path d="M74.1323 7.69317L63.7652 15.2651C63.7652 15.2651 63.6409 14.1591 65.2011 12.9091C66.7614 11.6591 76.1993 5.38635 76.1993 5.38635L74.1323 7.69317Z" fill="#DF1E12"/>
<path d="M53.1819 27.0474V21.983C53.1819 19.8542 52.3062 18.3769 50.3062 16.9792L41.8319 11.0474C40.8816 12.0758 40.3042 13.4565 40.3042 14.9905C40.3042 16.9015 41.2296 18.5966 42.6522 19.6724L53.1781 27.0512L53.1819 27.0474Z" fill="white"/>
<path d="M53.18 27.0474V21.983C53.18 19.8542 52.3043 18.3769 50.3043 16.9792L41.83 11.0474C40.8797 12.0758 40.3023 13.4565 40.3023 14.9905C40.3023 16.9015 41.2277 18.5966 42.6503 19.6724L53.1762 27.0512L53.18 27.0474Z" fill="white"/>
<path d="M62.9123 12.803C65.8225 10.9375 76.203 5.38635 76.203 5.38635C76.0252 5.03597 75.5969 4.50188 75.2069 4.0909L75.1916 4.07385C75.1916 4.07385 64.6944 9.76325 61.6523 11.7746C58.5682 13.8182 57.681 16.7784 57.5567 19.1913L57.5414 19.8125L59.3215 18.5132C59.4515 17.4697 60.006 14.6648 62.9162 12.803H62.9123Z" fill="white"/>
<path d="M69.6696 3.80872C70.247 3.80872 70.7155 4.27273 70.7155 4.84091C70.7155 5.40909 70.247 5.8769 69.6696 5.8769C69.0921 5.8769 68.6275 5.41288 68.6275 4.84091C68.6275 4.26894 69.096 3.80872 69.6696 3.80872Z" fill="white"/>
<path d="M57.5797 9.15156L64.0864 5.58337L66.9506 5.81443L57.5797 10.966V9.15345V9.15156Z" fill="white"/>
<path d="M21.7305 5.02466H45.6618C45.6618 5.02466 35.8912 5.12314 35.9505 14.9811L21.7305 5.02466Z" fill="#FFDD00"/>
<path d="M93.6506 0H92.0349V50H93.6506V0Z" fill="#2E261F"/>
<path d="M106.096 14.377H115.257C116.14 14.377 117.016 14.4811 117.878 14.6895C118.741 14.8978 119.509 15.2387 120.184 15.7084C120.859 16.18 121.406 16.7879 121.827 17.5341C122.247 18.2804 122.458 19.1762 122.458 20.2292C122.458 21.5436 122.081 22.6288 121.329 23.483C120.576 24.3372 119.591 24.9508 118.375 25.3239V25.3902C119.106 25.4773 119.786 25.68 120.417 25.9982C121.048 26.3163 121.584 26.7217 122.027 27.2141C122.471 27.7065 122.819 28.2766 123.073 28.9243C123.328 29.572 123.456 30.2671 123.456 31.0114C123.456 32.2823 123.201 33.341 122.693 34.1838C122.184 35.0266 121.515 35.7065 120.685 36.2216C119.855 36.7368 118.903 37.1042 117.83 37.322C116.758 37.5417 115.668 37.6516 114.563 37.6516H106.1V14.3788L106.096 14.377ZM110.278 23.8448H114.094C115.488 23.8448 116.534 23.5777 117.23 23.0398C117.926 22.5038 118.276 21.7974 118.276 20.9186C118.276 19.911 117.916 19.1591 117.198 18.6667C116.479 18.1743 115.322 17.9281 113.729 17.9281H110.278V23.8448ZM110.278 34.1004H114.127C114.658 34.1004 115.226 34.0682 115.836 34.002C116.444 33.9357 117.002 33.7842 117.511 33.5417C118.02 33.3012 118.44 32.9565 118.773 32.5057C119.104 32.0569 119.27 31.4489 119.27 30.6819C119.27 29.4546 118.865 28.6004 118.058 28.1175C117.249 27.6345 115.995 27.394 114.291 27.394H110.276V34.1004H110.278Z" fill="#2E261F"/>
<path d="M125.41 16.5133C125.41 15.8788 125.649 15.3258 126.123 14.8523C126.599 14.3826 127.201 14.1459 127.932 14.1459C128.662 14.1459 129.276 14.3713 129.775 14.8201C130.272 15.2709 130.521 15.8334 130.521 16.5133C130.521 17.1932 130.272 17.7576 129.775 18.2065C129.276 18.6553 128.662 18.8807 127.932 18.8807C127.201 18.8807 126.599 18.6459 126.123 18.1743C125.647 17.7027 125.41 17.1497 125.41 16.5133ZM125.974 21.8713H129.957V37.6497H125.974V21.8713Z" fill="#2E261F"/>
<path d="M133.209 21.8712H137.192V24.3693H137.259C137.7 23.4489 138.331 22.7368 139.15 22.233C139.968 21.7292 140.909 21.4773 141.97 21.4773C142.213 21.4773 142.452 21.5 142.683 21.5436C142.915 21.5871 143.152 21.6421 143.397 21.7084V25.5209C143.064 25.4337 142.737 25.3618 142.418 25.3068C142.098 25.2519 141.783 25.2235 141.471 25.2235C140.542 25.2235 139.794 25.394 139.232 25.733C138.668 26.072 138.236 26.4621 137.938 26.8996C137.639 27.339 137.44 27.7765 137.339 28.214C137.24 28.6534 137.19 28.9811 137.19 29.2008V37.6477H133.207V21.8693L133.209 21.8712Z" fill="#2E261F"/>
<path d="M156.739 35.284H156.672C156.096 36.2481 155.322 36.9488 154.349 37.3882C153.376 37.8257 152.326 38.0454 151.198 38.0454C149.959 38.0454 148.857 37.8314 147.896 37.4053C146.932 36.9772 146.11 36.392 145.423 35.6458C144.737 34.8996 144.217 34.0246 143.863 33.017C143.509 32.0094 143.333 30.9242 143.333 29.7632C143.333 28.6022 143.521 27.517 143.897 26.5094C144.274 25.5018 144.8 24.6249 145.475 23.8806C146.148 23.1363 146.963 22.5492 147.913 22.1212C148.863 21.6931 149.903 21.481 151.031 21.481C151.783 21.481 152.446 21.5568 153.024 21.7102C153.597 21.8636 154.108 22.0606 154.55 22.303C154.991 22.5435 155.368 22.8011 155.678 23.0757C155.987 23.3503 156.242 23.6193 156.441 23.8806H156.54V12.803H160.523V37.6534H156.739V35.2878V35.284ZM147.314 29.7613C147.314 30.3749 147.419 30.9659 147.63 31.5359C147.84 32.106 148.15 32.6098 148.559 33.0492C148.968 33.4886 149.46 33.8371 150.035 34.1003C150.611 34.3636 151.265 34.4943 151.993 34.4943C152.722 34.4943 153.376 34.3636 153.951 34.1003C154.527 33.8371 155.018 33.4867 155.427 33.0492C155.836 32.6117 156.146 32.1079 156.356 31.5359C156.567 30.9659 156.672 30.3749 156.672 29.7613C156.672 29.1477 156.567 28.5568 156.356 27.9867C156.146 27.4166 155.836 26.9128 155.427 26.4734C155.018 26.0359 154.527 25.6856 153.951 25.4223C153.376 25.159 152.724 25.0284 151.993 25.0284C151.263 25.0284 150.611 25.159 150.035 25.4223C149.46 25.6856 148.968 26.0359 148.559 26.4734C148.15 26.9128 147.84 27.4166 147.63 27.9867C147.419 28.5568 147.314 29.1477 147.314 29.7613Z" fill="#2E261F"/>
<path d="M172.204 26.2443C171.429 25.1704 170.389 24.6325 169.085 24.6325C168.553 24.6325 168.035 24.7632 167.525 25.0265C167.016 25.2897 166.762 25.7178 166.762 26.3087C166.762 26.7916 166.972 27.142 167.393 27.3598C167.812 27.5795 168.343 27.7651 168.986 27.9185C169.626 28.0719 170.318 28.231 171.06 28.3958C171.8 28.5606 172.492 28.8125 173.135 29.1515C173.775 29.4905 174.307 29.9564 174.727 30.5492C175.148 31.1401 175.358 31.9507 175.358 32.981C175.358 33.9242 175.154 34.7178 174.745 35.3655C174.335 36.0132 173.804 36.5322 173.152 36.928C172.498 37.3219 171.764 37.606 170.945 37.7822C170.127 37.9564 169.309 38.0454 168.488 38.0454C167.249 38.0454 166.11 37.8693 165.072 37.5189C164.031 37.1685 163.102 36.5322 162.284 35.6136L164.938 33.1477C165.446 33.7178 165.995 34.1837 166.582 34.5454C167.167 34.9072 167.88 35.0871 168.722 35.0871C169.01 35.0871 169.307 35.0549 169.618 34.9886C169.928 34.9223 170.215 34.8144 170.481 34.659C170.747 34.5056 170.963 34.3144 171.129 34.0833C171.295 33.8522 171.378 33.5852 171.378 33.2784C171.378 32.731 171.165 32.3257 170.747 32.0625C170.326 31.7992 169.796 31.5852 169.154 31.4223C168.511 31.2575 167.821 31.106 167.079 30.9621C166.337 30.82 165.647 30.589 165.005 30.2708C164.362 29.9545 163.833 29.5094 163.412 28.9394C162.991 28.3693 162.781 27.5814 162.781 26.5738C162.781 25.6969 162.963 24.9356 163.328 24.2878C163.693 23.642 164.173 23.1098 164.771 22.695C165.37 22.2803 166.054 21.9715 166.829 21.7746C167.603 21.5776 168.389 21.4791 169.184 21.4791C170.246 21.4791 171.297 21.659 172.337 22.0208C173.378 22.3825 174.217 23.0019 174.859 23.8787L172.204 26.2462V26.2443Z" fill="#2E261F"/>
<path d="M181.76 29.7613C181.76 28.5113 181.986 27.3769 182.441 26.3598C182.894 25.3409 183.508 24.4697 184.282 23.7462C185.056 23.0227 185.974 22.464 187.037 22.07C188.098 21.6761 189.227 21.4791 190.422 21.4791C191.617 21.4791 192.745 21.6761 193.806 22.07C194.867 22.464 195.785 23.0227 196.561 23.7462C197.336 24.4697 197.949 25.3409 198.403 26.3598C198.856 27.3787 199.083 28.5132 199.083 29.7613C199.083 31.0094 198.856 32.1439 198.403 33.1628C197.949 34.1818 197.336 35.053 196.561 35.7765C195.787 36.5 194.869 37.0587 193.806 37.4526C192.743 37.8465 191.615 38.0435 190.422 38.0435C189.229 38.0435 188.098 37.8465 187.037 37.4526C185.974 37.0587 185.056 36.5 184.282 35.7765C183.508 35.053 182.894 34.1818 182.441 33.1628C181.986 32.1439 181.76 31.0094 181.76 29.7613ZM185.741 29.7613C185.741 30.375 185.846 30.9659 186.056 31.5359C186.267 32.106 186.576 32.6098 186.986 33.0492C187.395 33.4867 187.886 33.8371 188.462 34.1003C189.037 34.3636 189.691 34.4943 190.42 34.4943C191.148 34.4943 191.802 34.3636 192.378 34.1003C192.953 33.8371 193.445 33.4867 193.854 33.0492C194.263 32.6117 194.573 32.1079 194.783 31.5359C194.993 30.9659 195.099 30.375 195.099 29.7613C195.099 29.1477 194.993 28.5568 194.783 27.9867C194.573 27.4166 194.263 26.9128 193.854 26.4734C193.445 26.0359 192.953 25.6856 192.378 25.4223C191.802 25.159 191.15 25.0284 190.42 25.0284C189.689 25.0284 189.037 25.159 188.462 25.4223C187.886 25.6856 187.395 26.0359 186.986 26.4734C186.576 26.9128 186.267 27.4166 186.056 27.9867C185.846 28.5568 185.741 29.1477 185.741 29.7613Z" fill="#2E261F"/>
<path d="M202.9 25.2235H199.615V21.8712H202.9V19.6364C202.9 18.5398 202.976 17.5493 203.131 16.661C203.286 15.7728 203.578 15.0114 204.011 14.375C204.443 13.7406 205.045 13.2519 205.819 12.9129C206.594 12.5739 207.599 12.4034 208.839 12.4034C209.745 12.4034 210.586 12.4792 211.361 12.6326L211.095 15.9849C210.808 15.9186 210.531 15.8637 210.265 15.8201C209.999 15.7765 209.722 15.7538 209.435 15.7538C208.882 15.7538 208.439 15.8409 208.108 16.0171C207.775 16.1932 207.515 16.4281 207.328 16.7235C207.141 17.019 207.018 17.3637 206.963 17.7595C206.907 18.1553 206.879 18.5701 206.879 19.0095V21.8694H210.563V25.2216H206.879V37.6478H202.898V25.2216L202.9 25.2235Z" fill="#2E261F"/>
<path d="M217.036 25.2235V21.8712H220.32V17.3011H224.303V21.8712H228.684V25.2235H224.303V32.1269C224.303 32.9167 224.452 33.5417 224.751 34.0019C225.049 34.4621 225.642 34.6913 226.527 34.6913C226.881 34.6913 227.267 34.6534 227.69 34.5758C228.108 34.5 228.441 34.3731 228.686 34.197V37.5171C228.265 37.714 227.751 37.8504 227.143 37.928C226.535 38.0038 225.997 38.0436 225.533 38.0436C224.47 38.0436 223.603 37.928 222.928 37.6989C222.254 37.4697 221.722 37.1193 221.336 36.6477C220.948 36.1761 220.682 35.5909 220.538 34.8883C220.395 34.1875 220.322 33.375 220.322 32.4546V25.2216H217.037L217.036 25.2235Z" fill="#2E261F"/>
<path d="M234.458 24.0738H234.525C234.835 23.4166 235.382 22.82 236.168 22.2821C236.951 21.7462 237.965 21.4772 239.204 21.4772C240.265 21.4772 241.168 21.6534 241.908 22.0037C242.648 22.3541 243.252 22.8143 243.716 23.3844C244.181 23.9545 244.514 24.6117 244.713 25.3579C244.911 26.1041 245.011 26.8806 245.011 27.6912V37.6515H241.028V29.6647C241.028 29.2272 241.005 28.7386 240.961 28.2007C240.915 27.6647 240.8 27.1609 240.613 26.6893C240.426 26.2178 240.131 25.8238 239.734 25.5056C239.336 25.1893 238.793 25.0284 238.106 25.0284C237.42 25.0284 236.885 25.1382 236.43 25.3579C235.976 25.5757 235.6 25.8731 235.301 26.2462C235.003 26.6193 234.787 27.0454 234.655 27.5284C234.521 28.0113 234.456 28.5151 234.456 29.0397V37.6515H230.473V12.7992H234.456V24.0738H234.458Z" fill="#2E261F"/>
<path d="M250.388 31.1421C250.521 32.3258 250.984 33.2462 251.781 33.9034C252.579 34.5606 253.541 34.8902 254.669 34.8902C255.665 34.8902 256.498 34.6875 257.175 34.2822C257.85 33.8769 258.441 33.3674 258.95 32.7538L261.804 34.8902C260.875 36.0303 259.835 36.8409 258.686 37.322C257.535 37.8049 256.328 38.0455 255.068 38.0455C253.873 38.0455 252.745 37.8485 251.684 37.4546C250.623 37.0606 249.703 36.5019 248.931 35.7784C248.156 35.0549 247.542 34.1837 247.087 33.1648C246.634 32.1459 246.407 31.0114 246.407 29.7633C246.407 28.5152 246.632 27.3788 247.087 26.3618C247.542 25.3447 248.156 24.4716 248.931 23.7481C249.705 23.0246 250.623 22.4659 251.684 22.072C252.745 21.678 253.875 21.4811 255.068 21.4811C256.173 21.4811 257.187 21.6724 258.105 22.0568C259.022 22.4413 259.808 22.9943 260.46 23.7178C261.112 24.4413 261.623 25.3334 261.986 26.3959C262.351 27.4584 262.535 28.6799 262.535 30.0606V31.1459H250.389L250.388 31.1421ZM258.552 28.1837C258.529 27.0227 258.164 26.108 257.456 25.4394C256.749 24.7709 255.764 24.4375 254.502 24.4375C253.307 24.4375 252.361 24.7765 251.665 25.4565C250.969 26.1364 250.542 27.0455 250.388 28.1837H258.552Z" fill="#2E261F"/>
<path d="M267.179 14.377H271.759L276.172 31.1421H276.239L281.516 14.377H285.631L290.808 31.1421H290.875L295.489 14.377H299.738L292.9 37.6497H288.917L283.474 19.9319H283.407L277.965 37.6497H274.116L267.179 14.377Z" fill="#2E261F"/>
<path d="M298.007 29.7613C298.007 28.5113 298.235 27.3769 298.688 26.3598C299.141 25.3428 299.755 24.4697 300.529 23.7462C301.304 23.0227 302.221 22.464 303.283 22.07C304.346 21.6761 305.474 21.4791 306.667 21.4791C307.86 21.4791 308.99 21.6761 310.051 22.07C311.113 22.464 312.03 23.0227 312.805 23.7462C313.579 24.4697 314.193 25.3409 314.648 26.3598C315.101 27.3787 315.329 28.5132 315.329 29.7613C315.329 31.0094 315.101 32.1439 314.648 33.1628C314.193 34.1818 313.579 35.053 312.805 35.7765C312.03 36.5 311.113 37.0587 310.051 37.4526C308.99 37.8465 307.86 38.0435 306.667 38.0435C305.474 38.0435 304.344 37.8465 303.283 37.4526C302.221 37.0587 301.304 36.5 300.529 35.7765C299.755 35.053 299.141 34.1818 298.688 33.1628C298.235 32.1439 298.007 31.0094 298.007 29.7613ZM301.99 29.7613C301.99 30.375 302.095 30.9659 302.306 31.5359C302.516 32.106 302.826 32.6098 303.235 33.0492C303.644 33.4886 304.135 33.8371 304.713 34.1003C305.288 34.3636 305.94 34.4943 306.671 34.4943C307.401 34.4943 308.053 34.3636 308.629 34.1003C309.204 33.8371 309.696 33.4867 310.105 33.0492C310.514 32.6117 310.824 32.1079 311.034 31.5359C311.244 30.9659 311.35 30.375 311.35 29.7613C311.35 29.1477 311.244 28.5568 311.034 27.9867C310.824 27.4166 310.514 26.9128 310.105 26.4734C309.696 26.0359 309.204 25.6856 308.629 25.4223C308.053 25.159 307.401 25.0284 306.671 25.0284C305.94 25.0284 305.288 25.159 304.713 25.4223C304.137 25.6856 303.644 26.0359 303.235 26.4734C302.826 26.9128 302.516 27.4166 302.306 27.9867C302.095 28.5568 301.99 29.1477 301.99 29.7613Z" fill="#2E261F"/>
<path d="M317.721 21.8712H321.703V24.3693H321.77C322.212 23.4489 322.843 22.7368 323.663 22.233C324.482 21.7292 325.422 21.4773 326.484 21.4773C326.726 21.4773 326.965 21.5 327.197 21.5436C327.428 21.5871 327.667 21.6421 327.91 21.7084V25.5209C327.577 25.4337 327.252 25.3618 326.931 25.3068C326.61 25.2519 326.296 25.2235 325.984 25.2235C325.055 25.2235 324.308 25.394 323.745 25.733C323.181 26.072 322.749 26.4621 322.451 26.8996C322.153 27.339 321.954 27.7765 321.854 28.214C321.755 28.6534 321.705 28.9811 321.705 29.2008V37.6477H317.722V21.8693L317.721 21.8712Z" fill="#2E261F"/>
<path d="M329.369 12.7992H333.352V37.6496H329.369V12.7992Z" fill="#2E261F"/>
<path d="M349.115 35.284H349.048C348.472 36.2481 347.698 36.9488 346.725 37.3882C345.751 37.8257 344.7 38.0454 343.572 38.0454C342.333 38.0454 341.233 37.8314 340.269 37.4053C339.308 36.9772 338.482 36.392 337.797 35.6458C337.111 34.8996 336.591 34.0246 336.237 33.017C335.883 32.0094 335.705 30.9242 335.705 29.7632C335.705 28.6022 335.893 27.517 336.269 26.5094C336.644 25.5018 337.17 24.6249 337.845 23.8806C338.52 23.1363 339.333 22.5492 340.285 22.1212C341.235 21.6931 342.275 21.481 343.403 21.481C344.155 21.481 344.818 21.5568 345.396 21.7102C345.971 21.8636 346.48 22.0606 346.921 22.303C347.363 22.5454 347.74 22.8011 348.05 23.0757C348.359 23.3503 348.614 23.6193 348.812 23.8806H348.912V12.803H352.895V37.6534H349.111V35.2878L349.115 35.284ZM339.69 29.7613C339.69 30.3749 339.795 30.9659 340.006 31.5359C340.216 32.106 340.526 32.6098 340.935 33.0492C341.344 33.4867 341.835 33.8371 342.413 34.1003C342.988 34.3636 343.64 34.4943 344.371 34.4943C345.101 34.4943 345.753 34.3636 346.329 34.1003C346.904 33.8371 347.396 33.4867 347.805 33.0492C348.214 32.6117 348.524 32.1079 348.734 31.5359C348.944 30.9659 349.05 30.3749 349.05 29.7613C349.05 29.1477 348.944 28.5568 348.734 27.9867C348.524 27.4166 348.214 26.9128 347.805 26.4734C347.396 26.0359 346.904 25.6856 346.329 25.4223C345.753 25.159 345.101 25.0284 344.371 25.0284C343.64 25.0284 342.988 25.159 342.413 25.4223C341.837 25.6856 341.344 26.0359 340.935 26.4734C340.526 26.9128 340.216 27.4166 340.006 27.9867C339.795 28.5568 339.69 29.1477 339.69 29.7613Z" fill="#2E261F"/>
</g>
<defs>
<clipPath id="clip0_47_326">
<rect width="352.899" height="50" fill="white"/>
</clipPath>
</defs>
</svg>
